<?xml version="1.0" encoding="UTF-8"?>
<svg xmlns="http://www.w3.org/2000/svg" xmlns:xlink="http://www.w3.org/1999/xlink" width="10032" height="2400" viewBox="0 0 10032 2400">
<rect x="-1003.2" y="-240" width="12038.4" height="2880" fill="rgb(100%, 100%, 100%)" fill-opacity="1"/>
<path fill-rule="evenodd" fill="rgb(19.993591%, 19.993591%, 19.993591%)" fill-opacity="1" d="M 3759.800781 240.019531 C 3848.160156 240.019531 3919.800781 311.648438 3919.800781 400.019531 C 3919.800781 488.378906 3848.160156 560.019531 3759.800781 560.019531 C 3671.429688 560.019531 3599.800781 488.378906 3599.800781 400.019531 C 3599.800781 311.648438 3671.429688 240.019531 3759.800781 240.019531 "/>
<path fill-rule="evenodd" fill="rgb(90.234375%, 90.234375%, 90.234375%)" fill-opacity="1" d="M 4159.800781 347.191406 C 4248.160156 347.191406 4319.800781 418.828125 4319.800781 507.191406 C 4319.800781 595.558594 4248.160156 667.191406 4159.800781 667.191406 C 4071.429688 667.191406 3999.800781 595.558594 3999.800781 507.191406 C 3999.800781 418.828125 4071.429688 347.191406 4159.800781 347.191406 "/>
<path fill-rule="evenodd" fill="rgb(83.984375%, 83.984375%, 83.984375%)" fill-opacity="1" d="M 4452.621094 640.019531 C 4540.980469 640.019531 4612.621094 711.648438 4612.621094 800.019531 C 4612.621094 888.378906 4540.980469 960.019531 4452.621094 960.019531 C 4364.25 960.019531 4292.621094 888.378906 4292.621094 800.019531 C 4292.621094 711.648438 4364.25 640.019531 4452.621094 640.019531 "/>
<path fill-rule="evenodd" fill="rgb(77.34375%, 77.34375%, 77.34375%)" fill-opacity="1" d="M 4559.800781 1040.019531 C 4648.160156 1040.019531 4719.800781 1111.648438 4719.800781 1200.019531 C 4719.800781 1288.378906 4648.160156 1360.019531 4559.800781 1360.019531 C 4471.429688 1360.019531 4399.800781 1288.378906 4399.800781 1200.019531 C 4399.800781 1111.648438 4471.429688 1040.019531 4559.800781 1040.019531 "/>
<path fill-rule="evenodd" fill="rgb(70.896912%, 70.896912%, 70.896912%)" fill-opacity="1" d="M 4452.621094 1440.015625 C 4540.980469 1440.015625 4612.621094 1511.648438 4612.621094 1600.015625 C 4612.621094 1688.382812 4540.980469 1760.015625 4452.621094 1760.015625 C 4364.25 1760.015625 4292.621094 1688.382812 4292.621094 1600.015625 C 4292.621094 1511.648438 4364.25 1440.015625 4452.621094 1440.015625 "/>
<path fill-rule="evenodd" fill="rgb(64.646912%, 64.646912%, 64.646912%)" fill-opacity="1" d="M 4159.800781 1732.835938 C 4248.160156 1732.835938 4319.800781 1804.464844 4319.800781 1892.835938 C 4319.800781 1981.203125 4248.160156 2052.832031 4159.800781 2052.832031 C 4071.429688 2052.832031 3999.800781 1981.203125 3999.800781 1892.835938 C 3999.800781 1804.464844 4071.429688 1732.835938 4159.800781 1732.835938 "/>
<path fill-rule="evenodd" fill="rgb(58.396912%, 58.396912%, 58.396912%)" fill-opacity="1" d="M 3759.800781 1840.015625 C 3848.160156 1840.015625 3919.800781 1911.648438 3919.800781 2000.015625 C 3919.800781 2088.382812 3848.160156 2160.015625 3759.800781 2160.015625 C 3671.429688 2160.015625 3599.800781 2088.382812 3599.800781 2000.015625 C 3599.800781 1911.648438 3671.429688 1840.015625 3759.800781 1840.015625 "/>
<path fill-rule="evenodd" fill="rgb(51.756287%, 51.756287%, 51.756287%)" fill-opacity="1" d="M 3359.800781 1732.835938 C 3448.160156 1732.835938 3519.800781 1804.464844 3519.800781 1892.835938 C 3519.800781 1981.203125 3448.160156 2052.832031 3359.800781 2052.832031 C 3271.429688 2052.832031 3199.800781 1981.203125 3199.800781 1892.835938 C 3199.800781 1804.464844 3271.429688 1732.835938 3359.800781 1732.835938 "/>
<path fill-rule="evenodd" fill="rgb(45.483398%, 45.483398%, 45.483398%)" fill-opacity="1" d="M 3066.980469 1440.015625 C 3155.351562 1440.015625 3226.980469 1511.648438 3226.980469 1600.015625 C 3226.980469 1688.382812 3155.351562 1760.015625 3066.980469 1760.015625 C 2978.609375 1760.015625 2906.980469 1688.382812 2906.980469 1600.015625 C 2906.980469 1511.648438 2978.609375 1440.015625 3066.980469 1440.015625 "/>
<path fill-rule="evenodd" fill="rgb(39.208984%, 39.208984%, 39.208984%)" fill-opacity="1" d="M 2959.800781 1040.019531 C 3048.160156 1040.019531 3119.800781 1111.648438 3119.800781 1200.019531 C 3119.800781 1288.378906 3048.160156 1360.019531 2959.800781 1360.019531 C 2871.429688 1360.019531 2799.800781 1288.378906 2799.800781 1200.019531 C 2799.800781 1111.648438 2871.429688 1040.019531 2959.800781 1040.019531 "/>
<path fill-rule="evenodd" fill="rgb(32.93457%, 32.93457%, 32.93457%)" fill-opacity="1" d="M 3066.980469 640.019531 C 3155.351562 640.019531 3226.980469 711.648438 3226.980469 800.019531 C 3226.980469 888.378906 3155.351562 960.019531 3066.980469 960.019531 C 2978.609375 960.019531 2906.980469 888.378906 2906.980469 800.019531 C 2906.980469 711.648438 2978.609375 640.019531 3066.980469 640.019531 "/>
<path fill-rule="evenodd" fill="rgb(26.268005%, 26.268005%, 26.268005%)" fill-opacity="1" d="M 3359.800781 347.191406 C 3448.160156 347.191406 3519.800781 418.828125 3519.800781 507.191406 C 3519.800781 595.558594 3448.160156 667.191406 3359.800781 667.191406 C 3271.429688 667.191406 3199.800781 595.558594 3199.800781 507.191406 C 3199.800781 418.828125 3271.429688 347.191406 3359.800781 347.191406 "/>
<path fill-rule="evenodd" fill="rgb(19.993591%, 19.993591%, 19.993591%)" fill-opacity="1" d="M 8903.800781 240.019531 C 8992.160156 240.019531 9063.800781 311.648438 9063.800781 400.019531 C 9063.800781 488.378906 8992.160156 560.019531 8903.800781 560.019531 C 8815.429688 560.019531 8743.800781 488.378906 8743.800781 400.019531 C 8743.800781 311.648438 8815.429688 240.019531 8903.800781 240.019531 "/>
<path fill-rule="evenodd" fill="rgb(90.234375%, 90.234375%, 90.234375%)" fill-opacity="1" d="M 9303.800781 435.191406 C 9343.558594 435.191406 9375.800781 467.429688 9375.800781 507.191406 C 9375.800781 546.960938 9343.558594 579.191406 9303.800781 579.191406 C 9264.03125 579.191406 9231.800781 546.960938 9231.800781 507.191406 C 9231.800781 467.429688 9264.03125 435.191406 9303.800781 435.191406 "/>
<path fill-rule="evenodd" fill="rgb(83.984375%, 83.984375%, 83.984375%)" fill-opacity="1" d="M 9596.621094 720.019531 C 9640.800781 720.019531 9676.621094 755.828125 9676.621094 800.019531 C 9676.621094 844.199219 9640.800781 880.019531 9596.621094 880.019531 C 9552.429688 880.019531 9516.621094 844.199219 9516.621094 800.019531 C 9516.621094 755.828125 9552.429688 720.019531 9596.621094 720.019531 "/>
<path fill-rule="evenodd" fill="rgb(77.34375%, 77.34375%, 77.34375%)" fill-opacity="1" d="M 9703.800781 1112.019531 C 9752.398438 1112.019531 9791.800781 1151.410156 9791.800781 1200.019531 C 9791.800781 1248.621094 9752.398438 1288.019531 9703.800781 1288.019531 C 9655.199219 1288.019531 9615.800781 1248.621094 9615.800781 1200.019531 C 9615.800781 1151.410156 9655.199219 1112.019531 9703.800781 1112.019531 "/>
<path fill-rule="evenodd" fill="rgb(70.896912%, 70.896912%, 70.896912%)" fill-opacity="1" d="M 9596.621094 1504.015625 C 9649.640625 1504.015625 9692.621094 1546.996094 9692.621094 1600.015625 C 9692.621094 1653.035156 9649.640625 1696.015625 9596.621094 1696.015625 C 9543.601562 1696.015625 9500.621094 1653.035156 9500.621094 1600.015625 C 9500.621094 1546.996094 9543.601562 1504.015625 9596.621094 1504.015625 "/>
<path fill-rule="evenodd" fill="rgb(64.646912%, 64.646912%, 64.646912%)" fill-opacity="1" d="M 9303.800781 1788.832031 C 9361.238281 1788.832031 9407.800781 1835.394531 9407.800781 1892.835938 C 9407.800781 1950.273438 9361.238281 1996.835938 9303.800781 1996.835938 C 9246.359375 1996.835938 9199.800781 1950.273438 9199.800781 1892.835938 C 9199.800781 1835.394531 9246.359375 1788.832031 9303.800781 1788.832031 "/>
<path fill-rule="evenodd" fill="rgb(58.396912%, 58.396912%, 58.396912%)" fill-opacity="1" d="M 8902.429688 1888.023438 C 8964.28125 1887.265625 9015.039062 1936.792969 9015.789062 1998.648438 C 9016.539062 2060.5 8967.019531 2111.25 8905.160156 2112.007812 C 8843.308594 2112.761719 8792.558594 2063.234375 8791.800781 2001.382812 C 8791.050781 1939.53125 8840.570312 1888.777344 8902.429688 1888.023438 "/>
<path fill-rule="evenodd" fill="rgb(51.756287%, 51.756287%, 51.756287%)" fill-opacity="1" d="M 8503.800781 1772.835938 C 8570.070312 1772.835938 8623.800781 1826.558594 8623.800781 1892.835938 C 8623.800781 1959.109375 8570.070312 2012.832031 8503.800781 2012.832031 C 8437.519531 2012.832031 8383.800781 1959.109375 8383.800781 1892.835938 C 8383.800781 1826.558594 8437.519531 1772.835938 8503.800781 1772.835938 "/>
<path fill-rule="evenodd" fill="rgb(45.483398%, 45.483398%, 45.483398%)" fill-opacity="1" d="M 8210.980469 1472.015625 C 8281.671875 1472.015625 8338.980469 1529.320312 8338.980469 1600.015625 C 8338.980469 1670.710938 8281.671875 1728.015625 8210.980469 1728.015625 C 8140.289062 1728.015625 8082.980469 1670.710938 8082.980469 1600.015625 C 8082.980469 1529.320312 8140.289062 1472.015625 8210.980469 1472.015625 "/>
<path fill-rule="evenodd" fill="rgb(39.208984%, 39.208984%, 39.208984%)" fill-opacity="1" d="M 8103.800781 1064.019531 C 8178.910156 1064.019531 8239.800781 1124.898438 8239.800781 1200.019531 C 8239.800781 1275.128906 8178.910156 1336.019531 8103.800781 1336.019531 C 8028.679688 1336.019531 7967.800781 1275.128906 7967.800781 1200.019531 C 7967.800781 1124.898438 8028.679688 1064.019531 8103.800781 1064.019531 "/>
<path fill-rule="evenodd" fill="rgb(32.93457%, 32.93457%, 32.93457%)" fill-opacity="1" d="M 8210.980469 656.019531 C 8290.511719 656.019531 8354.980469 720.480469 8354.980469 800.019531 C 8354.980469 879.550781 8290.511719 944.019531 8210.980469 944.019531 C 8131.441406 944.019531 8066.980469 879.550781 8066.980469 800.019531 C 8066.980469 720.480469 8131.441406 656.019531 8210.980469 656.019531 "/>
<path fill-rule="evenodd" fill="rgb(26.268005%, 26.268005%, 26.268005%)" fill-opacity="1" d="M 8503.800781 355.191406 C 8587.75 355.191406 8655.800781 423.25 8655.800781 507.191406 C 8655.800781 591.140625 8587.75 659.191406 8503.800781 659.191406 C 8419.851562 659.191406 8351.800781 591.140625 8351.800781 507.191406 C 8351.800781 423.25 8419.851562 355.191406 8503.800781 355.191406 "/>
<path fill-rule="evenodd" fill="rgb(0%, 0%, 0%)" fill-opacity="1" d="M 1199.800781 240.019531 C 1288.160156 240.019531 1359.800781 311.648438 1359.800781 400.019531 C 1359.800781 488.390625 1288.160156 560.019531 1199.800781 560.019531 C 1111.429688 560.019531 1039.800781 488.390625 1039.800781 400.019531 C 1039.800781 311.648438 1111.429688 240.019531 1199.800781 240.019531 "/>
<path fill-rule="evenodd" fill="rgb(39.988708%, 39.988708%, 39.988708%)" fill-opacity="1" d="M 1199.800781 1840.015625 C 1288.160156 1840.015625 1359.800781 1911.648438 1359.800781 2000.015625 C 1359.800781 2088.382812 1288.160156 2160.015625 1199.800781 2160.015625 C 1111.429688 2160.015625 1039.800781 2088.382812 1039.800781 2000.015625 C 1039.800781 1911.648438 1111.429688 1840.015625 1199.800781 1840.015625 "/>
<path fill-rule="evenodd" fill="rgb(59.959412%, 59.959412%, 59.959412%)" fill-opacity="1" d="M 1999.800781 1040.019531 C 2088.160156 1040.019531 2159.800781 1111.648438 2159.800781 1200.019531 C 2159.800781 1288.378906 2088.160156 1360.019531 1999.800781 1360.019531 C 1911.429688 1360.019531 1839.800781 1288.378906 1839.800781 1200.019531 C 1839.800781 1111.648438 1911.429688 1040.019531 1999.800781 1040.019531 "/>
<path fill-rule="evenodd" fill="rgb(70.117188%, 70.117188%, 70.117188%)" fill-opacity="1" d="M 1765.480469 474.328125 C 1853.851562 474.328125 1925.480469 545.960938 1925.480469 634.328125 C 1925.480469 722.691406 1853.851562 794.328125 1765.480469 794.328125 C 1677.121094 794.328125 1605.480469 722.691406 1605.480469 634.328125 C 1605.480469 545.960938 1677.121094 474.328125 1765.480469 474.328125 "/>
<path fill-rule="evenodd" fill="rgb(50.193787%, 50.193787%, 50.193787%)" fill-opacity="1" d="M 1765.480469 1605.699219 C 1853.851562 1605.699219 1925.480469 1677.332031 1925.480469 1765.703125 C 1925.480469 1854.070312 1853.851562 1925.699219 1765.480469 1925.699219 C 1677.121094 1925.699219 1605.480469 1854.070312 1605.480469 1765.703125 C 1605.480469 1677.332031 1677.121094 1605.699219 1765.480469 1605.699219 "/>
<path fill-rule="evenodd" fill="rgb(30.200195%, 30.200195%, 30.200195%)" fill-opacity="1" d="M 634.113281 1605.699219 C 722.480469 1605.699219 794.113281 1677.332031 794.113281 1765.703125 C 794.113281 1854.070312 722.480469 1925.699219 634.113281 1925.699219 C 545.742188 1925.699219 474.113281 1854.070312 474.113281 1765.703125 C 474.113281 1677.332031 545.742188 1605.699219 634.113281 1605.699219 "/>
<path fill-rule="evenodd" fill="rgb(10.205078%, 10.205078%, 10.205078%)" fill-opacity="1" d="M 634.113281 474.328125 C 722.480469 474.328125 794.113281 545.960938 794.113281 634.328125 C 794.113281 722.691406 722.480469 794.328125 634.113281 794.328125 C 545.742188 794.328125 474.113281 722.691406 474.113281 634.328125 C 474.113281 545.960938 545.742188 474.328125 634.113281 474.328125 "/>
<path fill-rule="evenodd" fill="rgb(19.993591%, 19.993591%, 19.993591%)" fill-opacity="1" d="M 399.796875 1040.019531 C 488.164062 1040.019531 559.796875 1111.648438 559.796875 1200.019531 C 559.796875 1288.378906 488.164062 1360.019531 399.796875 1360.019531 C 311.429688 1360.019531 239.796875 1288.378906 239.796875 1200.019531 C 239.796875 1111.648438 311.429688 1040.019531 399.796875 1040.019531 "/>
<path fill-rule="evenodd" fill="rgb(0%, 0%, 0%)" fill-opacity="1" d="M 6335.800781 240.019531 C 6424.160156 240.019531 6495.800781 311.648438 6495.800781 400.019531 C 6495.800781 488.390625 6424.160156 560.019531 6335.800781 560.019531 C 6247.429688 560.019531 6175.800781 488.390625 6175.800781 400.019531 C 6175.800781 311.648438 6247.429688 240.019531 6335.800781 240.019531 "/>
<path fill-rule="evenodd" fill="rgb(39.988708%, 39.988708%, 39.988708%)" fill-opacity="1" d="M 6335.800781 1872.015625 C 6406.488281 1872.015625 6463.800781 1929.320312 6463.800781 2000.015625 C 6463.800781 2070.710938 6406.488281 2128.015625 6335.800781 2128.015625 C 6265.101562 2128.015625 6207.800781 2070.710938 6207.800781 2000.015625 C 6207.800781 1929.320312 6265.101562 1872.015625 6335.800781 1872.015625 "/>
<path fill-rule="evenodd" fill="rgb(59.959412%, 59.959412%, 59.959412%)" fill-opacity="1" d="M 7135.800781 1088.019531 C 7197.660156 1088.019531 7247.800781 1138.160156 7247.800781 1200.019531 C 7247.800781 1261.871094 7197.660156 1312.019531 7135.800781 1312.019531 C 7073.941406 1312.019531 7023.800781 1261.871094 7023.800781 1200.019531 C 7023.800781 1138.160156 7073.941406 1088.019531 7135.800781 1088.019531 "/>
<path fill-rule="evenodd" fill="rgb(70.117188%, 70.117188%, 70.117188%)" fill-opacity="1" d="M 6901.480469 530.328125 C 6958.921875 530.328125 7005.480469 576.890625 7005.480469 634.328125 C 7005.480469 691.769531 6958.921875 738.328125 6901.480469 738.328125 C 6844.050781 738.328125 6797.480469 691.769531 6797.480469 634.328125 C 6797.480469 576.890625 6844.050781 530.328125 6901.480469 530.328125 "/>
<path fill-rule="evenodd" fill="rgb(50.193787%, 50.193787%, 50.193787%)" fill-opacity="1" d="M 6901.480469 1645.699219 C 6967.761719 1645.699219 7021.480469 1699.425781 7021.480469 1765.703125 C 7021.480469 1831.976562 6967.761719 1885.699219 6901.480469 1885.699219 C 6835.210938 1885.699219 6781.480469 1831.976562 6781.480469 1765.703125 C 6781.480469 1699.425781 6835.210938 1645.699219 6901.480469 1645.699219 "/>
<path fill-rule="evenodd" fill="rgb(30.200195%, 30.200195%, 30.200195%)" fill-opacity="1" d="M 5770.109375 1629.703125 C 5845.21875 1629.703125 5906.109375 1690.589844 5906.109375 1765.703125 C 5906.109375 1840.8125 5845.21875 1901.703125 5770.109375 1901.703125 C 5695 1901.703125 5634.109375 1840.8125 5634.109375 1765.703125 C 5634.109375 1690.589844 5695 1629.703125 5770.109375 1629.703125 "/>
<path fill-rule="evenodd" fill="rgb(10.205078%, 10.205078%, 10.205078%)" fill-opacity="1" d="M 5770.109375 482.328125 C 5854.058594 482.328125 5922.109375 550.378906 5922.109375 634.328125 C 5922.109375 718.28125 5854.058594 786.328125 5770.109375 786.328125 C 5686.160156 786.328125 5618.109375 718.28125 5618.109375 634.328125 C 5618.109375 550.378906 5686.160156 482.328125 5770.109375 482.328125 "/>
<path fill-rule="evenodd" fill="rgb(19.993591%, 19.993591%, 19.993591%)" fill-opacity="1" d="M 5535.800781 1056.019531 C 5615.328125 1056.019531 5679.800781 1120.480469 5679.800781 1200.019531 C 5679.800781 1279.550781 5615.328125 1344.019531 5535.800781 1344.019531 C 5456.269531 1344.019531 5391.800781 1279.550781 5391.800781 1200.019531 C 5391.800781 1120.480469 5456.269531 1056.019531 5535.800781 1056.019531 "/>
</svg>
