<?xml version="1.0" encoding="iso-8859-1"?>
<!-- Uploaded to: SVG Repo, www.svgrepo.com, Generator: SVG Repo Mixer Tools -->
<svg fill="#000000" height="800px" width="800px" version="1.1" id="Layer_1" xmlns="http://www.w3.org/2000/svg" xmlns:xlink="http://www.w3.org/1999/xlink" 
	 viewBox="0 0 512 512" xml:space="preserve">
<g>
	<g>
		<circle cx="139.13" cy="83.478" r="16.696"/>
	</g>
</g>
<g>
	<g>
		<circle cx="372.87" cy="83.478" r="16.696"/>
	</g>
</g>
<g>
	<g>
		<path d="M461.913,0H50.087C22.469,0,0,22.469,0,50.087v411.826C0,489.531,22.469,512,50.087,512h311.652
			c4.371,0,8.654-1.736,11.808-4.893l133.56-133.56c3.029-3.027,4.893-7.29,4.893-11.808V50.087C512,22.469,489.531,0,461.913,0z
			 M378.435,454.998V395.13c0-9.206,7.49-16.696,16.696-16.696h59.867L378.435,454.998z M478.609,345.043H395.13
			c-27.618,0-50.087,22.469-50.087,50.087v83.478H50.087c-9.206,0-16.696-7.49-16.696-16.696V166.957h445.217V345.043z
			 M478.609,133.565H33.391V50.087c0-9.206,7.49-16.696,16.696-16.696h411.826c9.206,0,16.696,7.49,16.696,16.696V133.565z"/>
	</g>
</g>
<g>
	<g>
		<path d="M122.435,278.261H89.044c-9.22,0-16.696,7.475-16.696,16.696s7.475,16.696,16.696,16.696h33.391
			c9.22,0,16.696-7.475,16.696-16.696S131.655,278.261,122.435,278.261z"/>
	</g>
</g>
<g>
	<g>
		<path d="M122.435,345.043H89.044c-9.22,0-16.696,7.475-16.696,16.696s7.475,16.696,16.696,16.696h33.391
			c9.22,0,16.696-7.475,16.696-16.696S131.655,345.043,122.435,345.043z"/>
	</g>
</g>
<g>
	<g>
		<path d="M222.609,278.261h-33.391c-9.22,0-16.696,7.475-16.696,16.696s7.475,16.696,16.696,16.696h33.391
			c9.22,0,16.696-7.475,16.696-16.696S231.829,278.261,222.609,278.261z"/>
	</g>
</g>
<g>
	<g>
		<path d="M222.609,345.043h-33.391c-9.22,0-16.696,7.475-16.696,16.696s7.475,16.696,16.696,16.696h33.391
			c9.22,0,16.696-7.475,16.696-16.696S231.829,345.043,222.609,345.043z"/>
	</g>
</g>
<g>
	<g>
		<path d="M322.783,211.478h-33.391c-9.22,0-16.696,7.475-16.696,16.696c0,9.22,7.475,16.696,16.696,16.696h33.391
			c9.22,0,16.696-7.475,16.696-16.696C339.478,218.953,332.003,211.478,322.783,211.478z"/>
	</g>
</g>
<g>
	<g>
		<path d="M322.783,278.261h-33.391c-9.22,0-16.696,7.475-16.696,16.696s7.475,16.696,16.696,16.696h33.391
			c9.22,0,16.696-7.475,16.696-16.696S332.003,278.261,322.783,278.261z"/>
	</g>
</g>
<g>
	<g>
		<path d="M322.783,345.043h-33.391c-9.22,0-16.696,7.475-16.696,16.696s7.475,16.696,16.696,16.696h33.391
			c9.22,0,16.696-7.475,16.696-16.696S332.003,345.043,322.783,345.043z"/>
	</g>
</g>
<g>
	<g>
		<path d="M122.435,411.826H89.044c-9.22,0-16.696,7.475-16.696,16.696s7.475,16.696,16.696,16.696h33.391
			c9.22,0,16.696-7.475,16.696-16.696S131.655,411.826,122.435,411.826z"/>
	</g>
</g>
<g>
	<g>
		<path d="M222.609,411.826h-33.391c-9.22,0-16.696,7.475-16.696,16.696s7.475,16.696,16.696,16.696h33.391
			c9.22,0,16.696-7.475,16.696-16.696S231.829,411.826,222.609,411.826z"/>
	</g>
</g>
<g>
	<g>
		<path d="M422.957,211.478h-33.391c-9.22,0-16.696,7.475-16.696,16.696c0,9.22,7.475,16.696,16.696,16.696h33.391
			c9.22,0,16.696-7.475,16.696-16.696C439.652,218.953,432.177,211.478,422.957,211.478z"/>
	</g>
</g>
<g>
	<g>
		<path d="M422.957,278.261h-33.391c-9.22,0-16.696,7.475-16.696,16.696s7.475,16.696,16.696,16.696h33.391
			c9.22,0,16.696-7.475,16.696-16.696S432.177,278.261,422.957,278.261z"/>
	</g>
</g>
</svg>